<svg width="177" height="37" viewBox="0 0 177 37" fill="none" xmlns="http://www.w3.org/2000/svg">
<path d="M7.488 7.824C7.95733 8.63467 8.48 9.62667 9.056 10.8C9.632 11.9733 10.2187 13.2107 10.816 14.512C11.4133 15.792 12 17.104 12.576 18.448C13.1733 19.7707 13.7173 20.9973 14.208 22.128C14.6987 20.9973 15.232 19.7707 15.808 18.448C16.384 17.104 16.9707 15.792 17.568 14.512C18.1653 13.2107 18.752 11.9733 19.328 10.8C19.904 9.62667 20.4267 8.63467 20.896 7.824H24.544C24.736 9.44533 24.9173 11.1733 25.088 13.008C25.2587 14.8213 25.408 16.688 25.536 18.608C25.6853 20.5067 25.8133 22.4267 25.92 24.368C26.048 26.288 26.1547 28.1653 26.24 30H22.272C22.1867 27.4187 22.08 24.7627 21.952 22.032C21.8453 19.3013 21.6747 16.656 21.44 14.096C21.2053 14.5867 20.928 15.1733 20.608 15.856C20.288 16.5387 19.9467 17.2853 19.584 18.096C19.2213 18.8853 18.848 19.7067 18.464 20.56C18.1013 21.4133 17.7387 22.2453 17.376 23.056C17.0347 23.8453 16.7147 24.592 16.416 25.296C16.1173 25.9787 15.8613 26.5653 15.648 27.056H12.64C12.4267 26.5653 12.1707 25.968 11.872 25.264C11.5733 24.56 11.2427 23.8133 10.88 23.024C10.5387 22.2133 10.176 21.3813 9.792 20.528C9.42933 19.6747 9.06667 18.8533 8.704 18.064C8.34133 17.2747 8 16.5387 7.68 15.856C7.36 15.152 7.08267 14.5653 6.848 14.096C6.61333 16.656 6.432 19.3013 6.304 22.032C6.19733 24.7627 6.10133 27.4187 6.016 30H2.048C2.13333 28.1653 2.22933 26.2667 2.336 24.304C2.464 22.3413 2.592 20.4 2.72 18.48C2.86933 16.5387 3.02933 14.6613 3.2 12.848C3.37067 11.0347 3.552 9.36 3.744 7.824H7.488ZM30.4572 21.712C30.4572 20.24 30.6706 18.9493 31.0972 17.84C31.5452 16.7307 32.1319 15.8133 32.8572 15.088C33.5826 14.3413 34.4146 13.7867 35.3532 13.424C36.2919 13.04 37.2519 12.848 38.2332 12.848C40.5372 12.848 42.3293 13.5627 43.6093 14.992C44.9106 16.4213 45.5613 18.5547 45.5613 21.392C45.5613 21.6053 45.5506 21.8507 45.5293 22.128C45.5293 22.384 45.5186 22.6187 45.4972 22.832H34.4572C34.5639 24.176 35.0332 25.2213 35.8652 25.968C36.7186 26.6933 37.9452 27.056 39.5452 27.056C40.4839 27.056 41.3373 26.9707 42.1053 26.8C42.8946 26.6293 43.5133 26.448 43.9613 26.256L44.4733 29.424C44.2599 29.5307 43.9612 29.648 43.5773 29.776C43.2146 29.8827 42.7879 29.9787 42.2972 30.064C41.8279 30.1707 41.3159 30.256 40.7612 30.32C40.2066 30.384 39.6412 30.416 39.0652 30.416C37.5932 30.416 36.3132 30.2027 35.2252 29.776C34.1372 29.328 33.2412 28.72 32.5372 27.952C31.8332 27.1627 31.3106 26.2453 30.9692 25.2C30.6279 24.1333 30.4572 22.9707 30.4572 21.712ZM41.6892 19.984C41.6892 19.4507 41.6146 18.9493 41.4653 18.48C41.3159 17.9893 41.0919 17.5733 40.7933 17.232C40.5159 16.8693 40.1639 16.592 39.7373 16.4C39.3319 16.1867 38.8412 16.08 38.2653 16.08C37.6679 16.08 37.1452 16.1973 36.6972 16.432C36.2492 16.6453 35.8652 16.9333 35.5452 17.296C35.2466 17.6587 35.0119 18.0747 34.8412 18.544C34.6706 19.0133 34.5532 19.4933 34.4892 19.984H41.6892ZM50.1145 8.848L53.9865 8.208V13.264H59.9385V16.496H53.9865V23.312C53.9865 24.656 54.1998 25.616 54.6265 26.192C55.0532 26.768 55.7785 27.056 56.8025 27.056C57.5065 27.056 58.1252 26.9813 58.6585 26.832C59.2132 26.6827 59.6505 26.544 59.9705 26.416L60.6105 29.488C60.1625 29.68 59.5758 29.872 58.8505 30.064C58.1252 30.2773 57.2718 30.384 56.2905 30.384C55.0958 30.384 54.0932 30.224 53.2825 29.904C52.4932 29.584 51.8638 29.1253 51.3945 28.528C50.9252 27.9093 50.5945 27.1733 50.4025 26.32C50.2105 25.4453 50.1145 24.4533 50.1145 23.344V8.848ZM73.8575 16.752C73.5375 16.6453 73.0895 16.5387 72.5135 16.432C71.9588 16.304 71.3082 16.24 70.5615 16.24C70.1348 16.24 69.6762 16.2827 69.1855 16.368C68.7162 16.4533 68.3855 16.528 68.1935 16.592V30H64.3215V14.064C65.0682 13.7867 65.9962 13.5307 67.1055 13.296C68.2362 13.04 69.4842 12.912 70.8495 12.912C71.1055 12.912 71.4042 12.9333 71.7455 12.976C72.0868 12.9973 72.4282 13.04 72.7695 13.104C73.1108 13.1467 73.4415 13.2107 73.7615 13.296C74.0815 13.36 74.3375 13.424 74.5295 13.488L73.8575 16.752ZM93.0037 21.616C93.0037 22.9387 92.8117 24.144 92.4277 25.232C92.0437 26.32 91.4997 27.248 90.7957 28.016C90.0917 28.784 89.2384 29.3813 88.2357 29.808C87.2544 30.2347 86.1664 30.448 84.9717 30.448C83.7771 30.448 82.6891 30.2347 81.7077 29.808C80.7264 29.3813 79.8837 28.784 79.1797 28.016C78.4757 27.248 77.9211 26.32 77.5157 25.232C77.1317 24.144 76.9397 22.9387 76.9397 21.616C76.9397 20.2933 77.1317 19.0987 77.5157 18.032C77.9211 16.944 78.4757 16.016 79.1797 15.248C79.9051 14.48 80.7584 13.8933 81.7397 13.488C82.7211 13.0613 83.7984 12.848 84.9717 12.848C86.1451 12.848 87.2224 13.0613 88.2037 13.488C89.2064 13.8933 90.0597 14.48 90.7637 15.248C91.4677 16.016 92.0117 16.944 92.3957 18.032C92.8011 19.0987 93.0037 20.2933 93.0037 21.616ZM89.0357 21.616C89.0357 19.952 88.6731 18.64 87.9477 17.68C87.2437 16.6987 86.2517 16.208 84.9717 16.208C83.6917 16.208 82.6891 16.6987 81.9637 17.68C81.2597 18.64 80.9077 19.952 80.9077 21.616C80.9077 23.3013 81.2597 24.6347 81.9637 25.616C82.6891 26.5973 83.6917 27.088 84.9717 27.088C86.2517 27.088 87.2437 26.5973 87.9477 25.616C88.6731 24.6347 89.0357 23.3013 89.0357 21.616ZM103.457 30.32C102.305 30.2987 101.345 30.1707 100.577 29.936C99.8301 29.7013 99.2327 29.3707 98.7847 28.944C98.3367 28.496 98.0167 27.952 97.8247 27.312C97.6541 26.6507 97.5687 25.904 97.5687 25.072V5.808L101.441 5.168V24.336C101.441 24.8053 101.473 25.2 101.537 25.52C101.622 25.84 101.761 26.1173 101.953 26.352C102.145 26.5653 102.401 26.736 102.721 26.864C103.062 26.9707 103.489 27.056 104.001 27.12L103.457 30.32ZM111.677 30H107.805V13.264H111.677V30ZM112.093 8.368C112.093 9.09333 111.858 9.66933 111.389 10.096C110.919 10.5227 110.365 10.736 109.725 10.736C109.063 10.736 108.498 10.5227 108.029 10.096C107.559 9.66933 107.325 9.09333 107.325 8.368C107.325 7.62133 107.559 7.03467 108.029 6.608C108.498 6.18133 109.063 5.968 109.725 5.968C110.365 5.968 110.919 6.18133 111.389 6.608C111.858 7.03467 112.093 7.62133 112.093 8.368ZM116.329 21.648C116.329 20.4107 116.521 19.2587 116.905 18.192C117.289 17.104 117.833 16.1653 118.537 15.376C119.262 14.5867 120.137 13.968 121.161 13.52C122.185 13.072 123.337 12.848 124.617 12.848C126.195 12.848 127.689 13.136 129.097 13.712L128.265 16.88C127.817 16.688 127.305 16.528 126.729 16.4C126.174 16.272 125.577 16.208 124.937 16.208C123.422 16.208 122.27 16.688 121.481 17.648C120.691 18.5867 120.297 19.92 120.297 21.648C120.297 23.312 120.67 24.6347 121.417 25.616C122.163 26.576 123.422 27.056 125.193 27.056C125.854 27.056 126.505 26.992 127.145 26.864C127.785 26.736 128.339 26.576 128.809 26.384L129.353 29.584C128.926 29.7973 128.275 29.9893 127.401 30.16C126.547 30.3307 125.662 30.416 124.745 30.416C123.315 30.416 122.067 30.2027 121.001 29.776C119.955 29.328 119.081 28.72 118.377 27.952C117.694 27.1627 117.182 26.2347 116.841 25.168C116.499 24.08 116.329 22.9067 116.329 21.648ZM137.182 27.216C138.206 27.216 138.953 27.0987 139.422 26.864C139.892 26.608 140.126 26.1813 140.126 25.584C140.126 25.0293 139.87 24.5707 139.358 24.208C138.868 23.8453 138.046 23.4507 136.894 23.024C136.19 22.768 135.54 22.5013 134.942 22.224C134.366 21.9253 133.865 21.584 133.438 21.2C133.012 20.816 132.67 20.3573 132.414 19.824C132.18 19.2693 132.062 18.5973 132.062 17.808C132.062 16.272 132.628 15.0667 133.758 14.192C134.889 13.296 136.425 12.848 138.366 12.848C139.348 12.848 140.286 12.944 141.182 13.136C142.078 13.3067 142.75 13.4773 143.198 13.648L142.494 16.784C142.068 16.592 141.524 16.4213 140.862 16.272C140.201 16.1013 139.433 16.016 138.558 16.016C137.769 16.016 137.129 16.1547 136.638 16.432C136.148 16.688 135.902 17.0933 135.902 17.648C135.902 17.9253 135.945 18.1707 136.03 18.384C136.137 18.5973 136.308 18.8 136.542 18.992C136.777 19.1627 137.086 19.344 137.47 19.536C137.854 19.7067 138.324 19.888 138.878 20.08C139.796 20.4213 140.574 20.7627 141.214 21.104C141.854 21.424 142.377 21.7973 142.782 22.224C143.209 22.6293 143.518 23.0987 143.71 23.632C143.902 24.1653 143.998 24.8053 143.998 25.552C143.998 27.152 143.401 28.368 142.206 29.2C141.033 30.0107 139.348 30.416 137.15 30.416C135.678 30.416 134.494 30.288 133.598 30.032C132.702 29.7973 132.073 29.6053 131.71 29.456L132.382 26.224C132.958 26.4587 133.641 26.6827 134.43 26.896C135.241 27.1093 136.158 27.216 137.182 27.216Z" fill="#4D4D4D"/>
<path fill-rule="evenodd" clip-rule="evenodd" d="M171.667 14H177V19.3332H171.667V14Z" fill="#FFB901"/>
<path fill-rule="evenodd" clip-rule="evenodd" d="M161 14H166.333V19.3332H161V14Z" fill="#25C389"/>
<path fill-rule="evenodd" clip-rule="evenodd" d="M166.333 19.3332H171.667V24.6664H166.333V19.3332Z" fill="#1691BD"/>
<path fill-rule="evenodd" clip-rule="evenodd" d="M161 24.6664H166.333V29.9996H161V24.6664Z" fill="#FFB901"/>
<path fill-rule="evenodd" clip-rule="evenodd" d="M171.667 24.6664H177V29.9996H171.667V24.6664Z" fill="#DE6262"/>
</svg>
