<svg width="20" height="19" viewBox="0 0 20 19" fill="none" xmlns="http://www.w3.org/2000/svg">
<path d="M18.7188 0.681919C18.9397 0.842634 19.0301 1.05692 18.99 1.32478L16.4185 16.7533C16.385 16.9475 16.2779 17.0982 16.0971 17.2054C16.0033 17.2589 15.8996 17.2857 15.7857 17.2857C15.7121 17.2857 15.6317 17.269 15.5446 17.2355L10.9944 15.3772L8.56362 18.3404C8.44308 18.4944 8.27902 18.5714 8.07143 18.5714C7.98438 18.5714 7.91071 18.558 7.85045 18.5312C7.72321 18.4844 7.61942 18.404 7.53906 18.2902C7.4654 18.183 7.42857 18.0625 7.42857 17.9286V14.423L16.1071 3.78571L5.36942 13.077L1.40179 11.4498C1.15402 11.356 1.02009 11.1719 1 10.8973C0.986607 10.6295 1.09375 10.4319 1.32143 10.3047L18.0357 0.66183C18.1362 0.601561 18.2433 0.571427 18.3571 0.571427C18.4911 0.571427 18.6116 0.608258 18.7188 0.681919Z" fill="white"/>
</svg>
